<svg width="14" height="9" viewBox="0 0 14 9" fill="none" xmlns="http://www.w3.org/2000/svg">
<path d="M6.63361 7.62383L13.1336 0.703371C13.3215 0.503315 13.6379 0.491731 13.8402 0.677497C14.0201 0.842623 14.0493 1.1081 13.9217 1.30556L13.8664 1.37609L7.3664 8.29654C7.1785 8.4966 6.86213 8.50818 6.65978 8.32242C6.47991 8.15729 6.45066 7.89182 6.57835 7.69436L6.63361 7.62383L13.1336 0.703371L6.63361 7.62383Z" fill="white"/>
<path d="M3.43573 7.24034L9.63521 0.701674C9.82405 0.502492 10.1405 0.492377 10.3419 0.67908C10.521 0.845038 10.549 1.11065 10.4204 1.30751L10.3648 1.37779L3.80333 8.29824C3.62866 8.48246 3.34667 8.50393 3.14702 8.36193L3.07639 8.30101L0.137853 5.24922C-0.0525441 5.05148 -0.0447525 4.73859 0.155256 4.55036C0.333042 4.38304 0.602859 4.37053 0.794346 4.5087L0.862149 4.56756L3.43573 7.24034L9.63521 0.701674L3.43573 7.24034Z" fill="white"/>
</svg>
