<svg width="17" height="13" viewBox="0 0 17 13" fill="none" xmlns="http://www.w3.org/2000/svg">
<path fill-rule="evenodd" clip-rule="evenodd" d="M1 7.66699H2C2.55228 7.66699 3 8.11471 3 8.66699V10.667C3 11.2193 2.55228 11.667 2 11.667H1C0.447715 11.667 0 11.2193 0 10.667V8.66699C0 8.11471 0.447715 7.66699 1 7.66699Z" fill="white"/>
<path fill-rule="evenodd" clip-rule="evenodd" d="M5.66669 5.66699H6.66669C7.21897 5.66699 7.66669 6.11471 7.66669 6.66699V10.667C7.66669 11.2193 7.21897 11.667 6.66669 11.667H5.66669C5.1144 11.667 4.66669 11.2193 4.66669 10.667V6.66699C4.66669 6.11471 5.1144 5.66699 5.66669 5.66699Z" fill="white"/>
<path fill-rule="evenodd" clip-rule="evenodd" d="M10.3333 3.33301H11.3333C11.8856 3.33301 12.3333 3.78072 12.3333 4.33301V10.6663C12.3333 11.2186 11.8856 11.6663 11.3333 11.6663H10.3333C9.78103 11.6663 9.33331 11.2186 9.33331 10.6663V4.33301C9.33331 3.78072 9.78103 3.33301 10.3333 3.33301Z" fill="white"/>
<path fill-rule="evenodd" clip-rule="evenodd" d="M15 1H16C16.5523 1 17 1.44772 17 2V10.6667C17 11.219 16.5523 11.6667 16 11.6667H15C14.4477 11.6667 14 11.219 14 10.6667V2C14 1.44772 14.4477 1 15 1V1Z" fill="white"/>
</svg>
