<svg width="16" height="13" viewBox="0 0 16 13" fill="none" xmlns="http://www.w3.org/2000/svg">
<path fill-rule="evenodd" clip-rule="evenodd" d="M7.63661 3.27733C9.8525 3.27742 11.9837 4.12886 13.5896 5.65566C13.7105 5.77354 13.9038 5.77205 14.0229 5.65233L15.1789 4.48566C15.2392 4.42494 15.2729 4.34269 15.2724 4.25711C15.2719 4.17153 15.2373 4.08967 15.1763 4.02966C10.9612 -0.00988674 4.31137 -0.00988674 0.0962725 4.02966C0.0352139 4.08963 0.00057 4.17146 6.97078e-06 4.25704C-0.000556058 4.34262 0.0330082 4.42489 0.0932725 4.48566L1.24961 5.65233C1.36863 5.77223 1.56208 5.77372 1.68294 5.65566C3.28909 4.12876 5.4205 3.27732 7.63661 3.27733Z" fill="white"/>
<path fill-rule="evenodd" clip-rule="evenodd" d="M7.63659 7.0729C8.85408 7.07282 10.0281 7.52536 10.9306 8.34257C11.0527 8.45855 11.2449 8.45603 11.3639 8.3369L12.5186 7.17023C12.5794 7.10904 12.6131 7.02602 12.6123 6.93976C12.6114 6.85349 12.576 6.77118 12.5139 6.71123C9.76573 4.15485 5.50979 4.15485 2.76159 6.71123C2.69952 6.77118 2.6641 6.85353 2.66328 6.93982C2.66247 7.02612 2.69633 7.10913 2.75726 7.17023L3.91159 8.3369C4.03058 8.45603 4.22286 8.45855 4.34493 8.34257C5.2468 7.5259 6.41991 7.0734 7.63659 7.0729Z" fill="white"/>
<path fill-rule="evenodd" clip-rule="evenodd" d="M9.8556 9.85698C9.91735 9.79638 9.95136 9.71298 9.94959 9.62647C9.94783 9.53996 9.91044 9.45802 9.84626 9.39998C8.57069 8.3211 6.7025 8.3211 5.42693 9.39998C5.36271 9.45797 5.32526 9.53989 5.32343 9.6264C5.3216 9.7129 5.35555 9.79633 5.41726 9.85698L7.41493 11.8726C7.47348 11.9319 7.55331 11.9652 7.6366 11.9652C7.71989 11.9652 7.79971 11.9319 7.85826 11.8726L9.8556 9.85698Z" fill="white"/>
</svg>
