<svg width="18" height="13" viewBox="0 0 18 13" fill="none" xmlns="http://www.w3.org/2000/svg">
<path d="M4.68555 11.1582C3.8418 11.1582 3.14062 10.9258 2.58203 10.4609C2.02344 9.99219 1.72461 9.38867 1.68555 8.65039H2.93945C2.98633 9.06836 3.17188 9.4082 3.49609 9.66992C3.82422 9.93164 4.22461 10.0625 4.69727 10.0625C5.22852 10.0625 5.66211 9.89453 5.99805 9.55859C6.33398 9.22266 6.50195 8.78906 6.50195 8.25781C6.50195 7.72656 6.33398 7.29102 5.99805 6.95117C5.66602 6.60742 5.23633 6.43555 4.70898 6.43555C4.3418 6.43555 4.00781 6.51562 3.70703 6.67578C3.41016 6.83203 3.17969 7.04883 3.01562 7.32617H1.81445L2.25977 2.54492H7.29297V3.65234H3.31445L3.08008 6.24805H3.10938C3.29688 5.97852 3.55469 5.76953 3.88281 5.62109C4.21484 5.46875 4.58594 5.39258 4.99609 5.39258C5.80859 5.39258 6.47656 5.66016 7 6.19531C7.52344 6.72656 7.78516 7.40234 7.78516 8.22266C7.78516 9.08984 7.49609 9.79688 6.91797 10.3438C6.34375 10.8867 5.59961 11.1582 4.68555 11.1582ZM16.6178 7.48438C16.6178 8.62891 16.2955 9.52539 15.651 10.1738C15.0104 10.8184 14.1178 11.1406 12.9733 11.1406C11.7623 11.1406 10.8014 10.7461 10.0905 9.95703C9.38344 9.16406 9.02992 8.08984 9.02992 6.73438C9.02992 5.40234 9.38148 4.34766 10.0846 3.57031C10.7916 2.79297 11.7487 2.4043 12.9557 2.4043C13.8971 2.4043 14.694 2.66016 15.3463 3.17188C16.0026 3.68359 16.4049 4.36133 16.5534 5.20508H15.2057C15.0495 4.68164 14.7741 4.27539 14.3795 3.98633C13.985 3.69727 13.5123 3.55273 12.9616 3.55273C12.153 3.55273 11.5182 3.83398 11.0573 4.39648C10.6002 4.95508 10.3717 5.73047 10.3717 6.72266C10.3717 7.73438 10.6061 8.5332 11.0748 9.11914C11.5436 9.70117 12.1803 9.99219 12.985 9.99219C13.6686 9.99219 14.2272 9.79297 14.6608 9.39453C15.0944 8.99219 15.3151 8.4707 15.3229 7.83008V7.68359H13.1373V6.62305H16.6178V7.48438Z" fill="white"/>
</svg>
