<svg width="30" height="31" viewBox="0 0 30 31" fill="none" xmlns="http://www.w3.org/2000/svg">
<path d="M22.409 17.6929L16.8761 23.2258C14.2246 25.8773 9.92563 25.8773 7.27412 23.2258C4.6226 20.5743 4.6226 16.2753 7.27412 13.6238L14.7218 6.17615C16.4908 4.40713 19.359 4.40713 21.128 6.17615C22.897 7.94518 22.897 10.8133 21.128 12.5823L13.4457 20.2646C12.6145 21.0958 11.267 21.0958 10.4358 20.2646C9.60467 19.4335 9.60467 18.0859 10.4358 17.2548L16.2033 11.4873C16.4962 11.1944 16.4962 10.7195 16.2033 10.4266C15.9104 10.1337 15.4355 10.1337 15.1426 10.4266L9.37516 16.1941C7.95822 17.6111 7.95822 19.9084 9.37516 21.3253C10.7921 22.7422 13.0894 22.7422 14.5063 21.3253L22.1886 13.643C24.5434 11.2882 24.5434 7.4703 22.1886 5.11549C19.8338 2.76069 16.0159 2.76069 13.6611 5.11549L6.21346 12.5632C2.97616 15.8005 2.97616 21.0492 6.21346 24.2865C9.45076 27.5238 14.6995 27.5238 17.9368 24.2865L23.4696 18.7536C23.7625 18.4607 23.7625 17.9858 23.4696 17.6929C23.1767 17.4 22.7018 17.4 22.409 17.6929Z" fill="#8D8D8F"/>
</svg>
