<svg width="30" height="31" viewBox="0 0 30 31" fill="none" xmlns="http://www.w3.org/2000/svg">
<path fill-rule="evenodd" clip-rule="evenodd" d="M15.25 3.5C18.0114 3.5 20.25 5.73858 20.25 8.5V15.5C20.25 18.2614 18.0114 20.5 15.25 20.5C12.4886 20.5 10.25 18.2614 10.25 15.5V8.5C10.25 5.73858 12.4886 3.5 15.25 3.5ZM23.75 14.75C24.1642 14.75 24.5 15.0858 24.5 15.5C24.5 20.1029 20.7502 23.8603 16.0009 24.2216L16 27.5C16 27.9142 15.6642 28.25 15.25 28.25C14.8703 28.25 14.5565 27.9678 14.5068 27.6018L14.5 27.5L14.5001 24.2216C9.75034 23.8609 6 20.1032 6 15.5C6 15.0858 6.33579 14.75 6.75 14.75C7.16421 14.75 7.5 15.0858 7.5 15.5C7.5 19.4936 10.96 22.75 15.25 22.75C19.54 22.75 23 19.4936 23 15.5C23 15.0858 23.3358 14.75 23.75 14.75ZM11.75 8.5C11.75 6.567 13.317 5 15.25 5C17.183 5 18.75 6.567 18.75 8.5V15.5C18.75 17.433 17.183 19 15.25 19C13.317 19 11.75 17.433 11.75 15.5V8.5Z" fill="#8D8D8F"/>
</svg>
