<svg width="18" height="12" viewBox="0 0 18 12" fill="none" xmlns="http://www.w3.org/2000/svg">
<path fill-rule="evenodd" clip-rule="evenodd" d="M1.72754 7.33341H2.72754C3.27982 7.33341 3.72754 7.78113 3.72754 8.33341V10.3334C3.72754 10.8857 3.27982 11.3334 2.72754 11.3334H1.72754C1.17525 11.3334 0.727539 10.8857 0.727539 10.3334V8.33341C0.727539 7.78113 1.17525 7.33341 1.72754 7.33341ZM6.39421 5.33341H7.39421C7.94649 5.33341 8.39421 5.78113 8.39421 6.33341V10.3334C8.39421 10.8857 7.94649 11.3334 7.39421 11.3334H6.39421C5.84192 11.3334 5.39421 10.8857 5.39421 10.3334V6.33341C5.39421 5.78113 5.84192 5.33341 6.39421 5.33341ZM11.0609 3.00008H12.0609C12.6132 3.00008 13.0609 3.4478 13.0609 4.00008V10.3334C13.0609 10.8857 12.6132 11.3334 12.0609 11.3334H11.0609C10.5086 11.3334 10.0609 10.8857 10.0609 10.3334V4.00008C10.0609 3.4478 10.5086 3.00008 11.0609 3.00008ZM15.7275 0.666748H16.7275C17.2798 0.666748 17.7275 1.11446 17.7275 1.66675V10.3334C17.7275 10.8857 17.2798 11.3334 16.7275 11.3334H15.7275C15.1753 11.3334 14.7275 10.8857 14.7275 10.3334V1.66675C14.7275 1.11446 15.1753 0.666748 15.7275 0.666748Z" fill="black"/>
</svg>
