<svg width="18" height="13" viewBox="0 0 18 13" fill="none" xmlns="http://www.w3.org/2000/svg">
<path d="M2.49609 7.17383V6.14258H3.51562C3.96875 6.14258 4.33789 6.01367 4.62305 5.75586C4.91211 5.49805 5.05664 5.16992 5.05664 4.77148C5.05664 4.36914 4.92188 4.05078 4.65234 3.81641C4.38672 3.58203 4.00781 3.46484 3.51562 3.46484C3.05859 3.46484 2.6875 3.58789 2.40234 3.83398C2.11719 4.07617 1.95508 4.40625 1.91602 4.82422H0.679688C0.730469 4.08203 1.01562 3.49023 1.53516 3.04883C2.05859 2.60742 2.73828 2.38672 3.57422 2.38672C4.37891 2.38672 5.04102 2.59375 5.56055 3.00781C6.08008 3.41797 6.33984 3.94727 6.33984 4.5957C6.33984 5.11914 6.18164 5.56055 5.86523 5.91992C5.54883 6.27539 5.12695 6.5 4.59961 6.59375V6.61719C5.24023 6.66016 5.74805 6.86523 6.12305 7.23242C6.50195 7.59961 6.69141 8.07812 6.69141 8.66797C6.69141 9.39844 6.39648 9.99609 5.80664 10.4609C5.2168 10.9258 4.47656 11.1582 3.58594 11.1582C2.68359 11.1582 1.95508 10.9336 1.40039 10.4844C0.849609 10.0312 0.552734 9.43555 0.509766 8.69727H1.76953C1.8125 9.10742 1.99414 9.4375 2.31445 9.6875C2.63867 9.9375 3.0625 10.0625 3.58594 10.0625C4.10156 10.0625 4.52539 9.93164 4.85742 9.66992C5.18945 9.4043 5.35547 9.06445 5.35547 8.65039C5.35547 8.19336 5.19336 7.83398 4.86914 7.57227C4.54883 7.30664 4.10938 7.17383 3.55078 7.17383H2.49609ZM15.6647 7.48438C15.6647 8.62891 15.3424 9.52539 14.6979 10.1738C14.0573 10.8184 13.1647 11.1406 12.0202 11.1406C10.8092 11.1406 9.84828 10.7461 9.13734 9.95703C8.43031 9.16406 8.0768 8.08984 8.0768 6.73438C8.0768 5.40234 8.42836 4.34766 9.13148 3.57031C9.83852 2.79297 10.7955 2.4043 12.0026 2.4043C12.944 2.4043 13.7409 2.66016 14.3932 3.17188C15.0495 3.68359 15.4518 4.36133 15.6002 5.20508H14.2526C14.0963 4.68164 13.8209 4.27539 13.4264 3.98633C13.0319 3.69727 12.5592 3.55273 12.0084 3.55273C11.1998 3.55273 10.5651 3.83398 10.1041 4.39648C9.64711 4.95508 9.41859 5.73047 9.41859 6.72266C9.41859 7.73438 9.65297 8.5332 10.1217 9.11914C10.5905 9.70117 11.2272 9.99219 12.0319 9.99219C12.7155 9.99219 13.2741 9.79297 13.7077 9.39453C14.1413 8.99219 14.362 8.4707 14.3698 7.83008V7.68359H12.1842V6.62305H15.6647V7.48438Z" fill="black"/>
</svg>
