<svg width="18" height="13" viewBox="0 0 18 13" fill="none" xmlns="http://www.w3.org/2000/svg">
<path d="M4.67578 11V9.33008H0.445312V8.18164C1.125 6.90039 2.32227 5.02148 4.03711 2.54492H5.93555V8.22852H7.0957V9.33008H5.93555V11H4.67578ZM1.66992 8.2168V8.24609H4.6875V3.55859H4.66406C3.26562 5.57812 2.26758 7.13086 1.66992 8.2168ZM15.8405 7.48438C15.8405 8.62891 15.5182 9.52539 14.8737 10.1738C14.233 10.8184 13.3405 11.1406 12.1959 11.1406C10.985 11.1406 10.0241 10.7461 9.31313 9.95703C8.60609 9.16406 8.25258 8.08984 8.25258 6.73438C8.25258 5.40234 8.60414 4.34766 9.30727 3.57031C10.0143 2.79297 10.9713 2.4043 12.1784 2.4043C13.1198 2.4043 13.9166 2.66016 14.569 3.17188C15.2252 3.68359 15.6276 4.36133 15.776 5.20508H14.4284C14.2721 4.68164 13.9967 4.27539 13.6022 3.98633C13.2077 3.69727 12.735 3.55273 12.1842 3.55273C11.3756 3.55273 10.7409 3.83398 10.2799 4.39648C9.82289 4.95508 9.59438 5.73047 9.59438 6.72266C9.59438 7.73438 9.82875 8.5332 10.2975 9.11914C10.7663 9.70117 11.403 9.99219 12.2077 9.99219C12.8913 9.99219 13.4498 9.79297 13.8834 9.39453C14.317 8.99219 14.5377 8.4707 14.5455 7.83008V7.68359H12.36V6.62305H15.8405V7.48438Z" fill="black"/>
</svg>
