<svg width="16" height="12" viewBox="0 0 16 12" fill="none" xmlns="http://www.w3.org/2000/svg">
<path fill-rule="evenodd" clip-rule="evenodd" d="M8.36414 2.79466C10.58 2.79476 12.7112 3.6462 14.3171 5.17299C14.4381 5.29087 14.6314 5.28938 14.7505 5.16966L15.9065 4.00299C15.9668 3.94227 16.0004 3.86002 15.9999 3.77444C15.9994 3.68886 15.9648 3.60701 15.9038 3.54699C11.6887 -0.492553 5.03891 -0.492553 0.823812 3.54699C0.762753 3.60696 0.728109 3.68879 0.727546 3.77437C0.726983 3.85995 0.760547 3.94223 0.820812 4.00299L1.97714 5.16966C2.09617 5.28956 2.28962 5.29105 2.41048 5.17299C4.01663 3.6461 6.14803 2.79466 8.36414 2.79466ZM8.36414 6.59033C9.58163 6.59025 10.7557 7.04279 11.6581 7.85999C11.7802 7.97598 11.9725 7.97346 12.0915 7.85433L13.2461 6.68766C13.307 6.62647 13.3407 6.54345 13.3398 6.45718C13.3389 6.37092 13.3035 6.28861 13.2415 6.22866C10.4933 3.67228 6.23734 3.67228 3.48915 6.22866C3.42707 6.28861 3.39165 6.37096 3.39083 6.45725C3.39002 6.54355 3.42388 6.62655 3.48481 6.68766L4.63914 7.85433C4.75813 7.97346 4.95042 7.97598 5.07248 7.85999C5.97435 7.04333 7.14746 6.59083 8.36414 6.59033ZM10.5831 9.37466C10.6449 9.31406 10.6789 9.23065 10.6771 9.14415C10.6754 9.05764 10.638 8.9757 10.5738 8.91766C9.29824 7.83878 7.43005 7.83878 6.15448 8.91766C6.09026 8.97565 6.05281 9.05757 6.05098 9.14407C6.04915 9.23058 6.0831 9.31401 6.14481 9.37466L8.14248 11.3903C8.20103 11.4496 8.28085 11.4829 8.36415 11.4829C8.44744 11.4829 8.52726 11.4496 8.58581 11.3903L10.5831 9.37466Z" fill="black"/>
</svg>
